/* XPM */
static char *Free_Converter_com_bitcoin64_811556[] = {
/* columns rows colors chars-per-pixel */
"64 64 256 2 ",
"   c #160B04",
".  c #1C1209",
"X  c #060300",
"o  c #231303",
"O  c #23170A",
"+  c #2B1C0B",
"@  c #2A1805",
"#  c #311E07",
"$  c #271D11",
"%  c #230E00",
"&  c #34230C",
"*  c #3B270D",
"=  c #3B260A",
"-  c #2B2216",
";  c #3D2C14",
":  c #352817",
">  c #2F210E",
",  c #382E21",
"<  c #3A3226",
"1  c #442C0B",
"2  c #492D08",
"3  c #4B320D",
"4  c #56380A",
"5  c #412A14",
"6  c #4B3413",
"7  c #45341B",
"8  c #463418",
"9  c #523A15",
"0  c #583D16",
"q  c #4A3A23",
"w  c #483D2E",
"e  c #723E24",
"r  c #5B4219",
"t  c #65430C",
"y  c #63421D",
"u  c #6D4D1C",
"i  c #664716",
"p  c #744D1B",
"a  c #77531A",
"s  c #704E16",
"d  c #5A4727",
"f  c #594C36",
"g  c #4F4536",
"h  c #644B24",
"j  c #674D27",
"k  c #6A5227",
"l  c #785A28",
"z  c #685536",
"x  c #735C32",
"c  c #755C34",
"v  c #724F21",
"b  c #76613B",
"n  c #7C602D",
"m  c #554D45",
"M  c #6D5A4D",
"N  c #796848",
"B  c #6B6457",
"V  c #756858",
"C  c #7E7159",
"Z  c #79746A",
"A  c #7B7673",
"S  c #7C7975",
"D  c #797877",
"F  c #6E6A67",
"G  c #855D1C",
"H  c #93641A",
"J  c #835E27",
"K  c #985A33",
"L  c #83642C",
"P  c #8B6628",
"I  c #956C2A",
"U  c #896935",
"Y  c #8E723A",
"T  c #91733C",
"R  c #9A7738",
"E  c #977131",
"W  c #A3782F",
"Q  c #A37936",
"!  c #B8693B",
"~  c #836D43",
"^  c #8B7649",
"/  c #947A44",
"(  c #987C44",
")  c #887857",
"_  c #957C54",
"`  c #906A46",
"'  c #A77E41",
"]  c #A06D44",
"[  c #867D6B",
"{  c #837C76",
"}  c #C57843",
"|  c #E97C44",
" . c #AA833B",
".. c #AB8439",
"X. c #B38A3E",
"o. c #B98A2E",
"O. c #AF832E",
"+. c #D38F18",
"@. c #F1A71C",
"#. c #F1A417",
"$. c #EBA21B",
"%. c #C99533",
"&. c #F2AB26",
"*. c #EDB137",
"=. c #E39A17",
"-. c #9C834C",
";. c #9B8658",
":. c #AB8543",
">. c #A68648",
",. c #B38A46",
"<. c #B4914C",
"1. c #BB954A",
"2. c #BB9546",
"3. c #A68B56",
"4. c #AB925C",
"5. c #AC9556",
"6. c #BC9D5C",
"7. c #B69757",
"8. c #B18E55",
"9. c #BCA15A",
"0. c #988866",
"q. c #84827E",
"w. c #898278",
"e. c #948A79",
"r. c #9D9579",
"t. c #938D6D",
"y. c #A79468",
"u. c #B79C64",
"i. c #A49472",
"p. c #A89874",
"a. c #AD9771",
"s. c #BAA267",
"d. c #BAA679",
"f. c #AEAA7D",
"g. c #C49C4A",
"h. c #C69A47",
"j. c #C49D55",
"k. c #D38A53",
"l. c #EA864A",
"z. c #EA8C53",
"x. c #EB9756",
"c. c #CEA64D",
"v. c #D4A94B",
"b. c #CBA453",
"n. c #C5A35C",
"m. c #C9A659",
"M. c #D3AB59",
"N. c #DBB359",
"B. c #EEA35D",
"V. c #EEB350",
"C. c #C3A462",
"Z. c #C9AA66",
"A. c #D9B667",
"S. c #C5AD76",
"D. c #CAB478",
"F. c #D8BA78",
"G. c #CFAF69",
"H. c #EDA966",
"J. c #F1AB62",
"K. c #E7B96C",
"L. c #F3BC6D",
"P. c #F2B368",
"I. c #E5BE76",
"U. c #EEB475",
"Y. c #E69E6C",
"T. c #DBC279",
"R. c #E8C367",
"E. c #E4C273",
"W. c #E7C679",
"Q. c #F5C473",
"!. c #F5CA76",
"~. c #F6CD7A",
"^. c #F4C678",
"/. c #F6D17A",
"(. c #F4D077",
"). c #F5C25A",
"_. c #858482",
"`. c #888682",
"'. c #8C8985",
"]. c #8C8C8A",
"[. c #938E89",
"{. c #95938C",
"}. c #9A9489",
"|. c #949392",
" X c #9B9A99",
".X c #999896",
"XX c #A19E9A",
"oX c #A59D8A",
"OX c #A9A38B",
"+X c #B5A785",
"@X c #A8A59A",
"#X c #B5B09C",
"$X c #A4A2A3",
"%X c #ADACAB",
"&X c #AAA9A5",
"*X c #B7B3AA",
"=X c #BAB9B8",
"-X c #A09FA0",
";X c #C2AC80",
":X c #CBB788",
">X c #D5BD87",
",X c #C9BA96",
"<X c #ECBB90",
"1X c #C4BCA4",
"2X c #C1BFBE",
"3X c #DCC285",
"4X c #DBC68B",
"5X c #CDC998",
"6X c #DAC795",
"7X c #C9C28E",
"8X c #E4C785",
"9X c #E8D28D",
"0X c #F5D689",
"qX c #E3CD9B",
"wX c #E4CD93",
"eX c #EAD498",
"rX c #F3DA98",
"tX c #F2C68B",
"yX c #FFE79B",
"uX c #F7ED9D",
"iX c #D8CAA4",
"pX c #DFD6B8",
"aX c #DDDBB8",
"sX c #D2CAB1",
"dX c #E5D2A5",
"fX c #E9D8A9",
"gX c #F3DCA7",
"hX c #E9DAB6",
"jX c #EDD8AE",
"kX c #EDE2A8",
"lX c #FBE5AB",
"zX c #F8E6B8",
"xX c #FBF1BA",
"cX c #E4E1BD",
"vX c #DAD4C8",
"bX c #CECECE",
"nX c #E9DDC2",
"mX c #E0DFDF",
"MX c #ECE2C6",
"NX c #F4E9CD",
"BX c #F7EAC7",
"VX c #FEF2CB",
"CX c #EDE9D9",
"ZX c #F5EDD9",
"AX c #FCF1D2",
"SX c #FCF3DB",
"DX c #F9F4DA",
"FX c #E8E7E5",
"GX c #F3EEE2",
"HX c #FEFBEC",
"JX c #FAF5E6",
"KX c #FEFDF3",
"LX c #FEFEFE",
"PX c #F7F6F5",
"IX c #E0DFE0",
"UX c None",
/* pixels */
"UXUXUXUXUXUXUXUXUXUXUXUXUXUXUXUXUXUXUXUXUXUXUXUXUXUXUXUXUXUXUXUXUXUXUXUXUXUXUXUXUXUXUXUXUXUXUXUXUXUXUXUXUXUXUXUXUXUXUXUXUXUXUXUX",
"UXUXUXUXUXUXUXUXUXUXUXUXUXUXUXUXUXUXUXUXUXUXUXUXUXUXUXUXUXUXUXUXUXUXUXUXUXUXUXUXUXUXUXUXUXUXUXUXUXUXUXUXUXUXUXUXUXUXUXUXUXUXUXUX",
"UXUXUXUXUXUXUXUXUXUXUXUXUXUXUXUXUXUXUXUXUXUXUXUXUXUXUXUXUXUXUXUXUXUXUXUXUXUXUXUXUXUXUXUXUXUXUXUXUXUXUXUXUXUXUXUXUXUXUXUXUXUXUXUX",
"UXUXUXUXUXUXUXUXUXUXUXUXUXUXUXUXUXUXUXUXUXUXUXUXUXUXUXUXUXUXUXUXUXUXUXUXUXUXUXUXUXUXUXUXUXUXUXUXUXUXUXUXUXUXUXUXUXUXUXUXUXUXUXUX",
"UXUXUXUXUXUXUXUXUXUXUXUXUXUXUXUXUXUXUXUXUXUXUXUXUXUXUXUXUXUXUXUXUXUXUXUXUXUXUXUXUXUXUXUXUXUXUXUXUXUXUXUXUXUXUXUXUXUXUXUXUXUXUXUX",
"UXUXUXUXUXUXUXUXUXUXUXUXUXUXUXUXUXUXUXUXUXUXUXUXUXUXUXUXUXUXUXUXUXUXUXUXUXUXUXUXUXUXUXUXUXUXUXUXUXUXUXUXUXUXUXUXUXUXUXUXUXUXUXUX",
"UXUXUXUXUXUXUXUXUXUXUXUXUXUXUXUXUXUXUXUXUXUXUXUXUXUXUXUXUXUXUXUXUXUXUXUXUXUXUXUXUXUXUXUXUXUXUXUXUXUXUXUXUXUXUXUXUXUXUXUXUXUXUXUX",
"UXUXUXUXUXUXUXUXUXUXUXUXUXUXUXUXUXUXUXUXUXUXUXUXUXUXUXUXUXUXUXUXUXUXUXUXUXUXUXUXUXUXUXUXUXUXUXUXUXUXUXUXUXUXUXUXUXUXUXUXUXUXUXUX",
"UXUXUXUXUXUXUXUXUXUXUXUXUXUXUXUXUXUXUXUXUXUXUXUXUXUXUXUXUXUXUXUXUXUXUXUXUXUXUXUXUXUXUXUXUXUXUXUXUXUXUXUXUXUXUXUXUXUXUXUXUXUXUXUX",
"UXUXUXUXUXUXUXUXUXUXUXUXUXUXUXUXUXUXUXUXUXUXUXUXUXUXUXUXUXUXUXUXUXUXUXUXUXUXUXUXUXUXUXUXUXUXUXUXUXUXUXUXUXUXUXUXUXUXUXUXUXUXUXUX",
"UXUXUXUXUXUXUXUXUXUXUXUXUXUXUXUXUXUXUXUXUXUXUXUXUXUXUXUXUXUXUXUXUXUXUXUXUXUXUXUXUXUXUXUXUXUXUXUXUXUXUXUXUXUXUXUXUXUXUXUXUXUXUXUX",
"UXUXUXUXUXUXUXUXUXUXUXUXUXUXUXUXUXUXUXUXUX8X9.R _  .4.;.( -.3.a.s.d.d.jXzXjXgXqXUXUXUXUXUXUXUXUXUXUXUXUXUXUXUXUXUXUXUXUXUXUXUXUX",
"UXUXUXUXUXUXUXUXUXUXUX[ 4.' ] W h.N.N.v.g.G 0 y l L ' dXcXnXcXMXBX4X' ' -.-.4.u.6.D.W.j.Y 1.E.G.,.n.UXUXUXUXUXUXUXUXUXUXUXUXUXUX",
"UXUXUXUXUXUXUXUXUXUXM G s W I P Q h.W.gXgXF.,.<.n.n.6.nXKXKXKXAXBXjX3XG.C.8.g.A.A.g.X.m.j.W W I Q v.s UXUXUXUXUXUXUXUXUXUXUXUXUX",
"UXUXUXUXUXUXUXUXUXN G Q I ~.N.I W I E >.6X:X5.<.4.4.3.d.GXSXcXfXrX8XqXqXrXW.E L a u u P X.h.%.X.O y.M.p UXUXUXUXUXUXUXUXUXUXUXUX",
"UXUXUXUXUXUXUXUXUX..J 0 X.M.G.Q N.M./   / W.b.n.<.s.;X6XZXPXJXGXBXCXNX4X6.] K.1.p 1   q E O.%.h.G z eXK.>.UXUXUXUXUXUXUXUXUXUXUX",
"UXUXUXUXUXUXUXUX2.g.> :.0X0X>.U ..b.R.6.x rXT.T.D.C.4XdXDXLXLXLXLXSXlXu.8.G.j.Q W 3 h q k L P i 6 J J 1.R.7 UXUXUXUXUXUXUXUXUXUX",
"UXUXUXUXUXUXUX1.c.U J 0XyX6.9 I X.X.A.xXsXS.rX9XfXT.wXaXPXLXLXLXLXnXdX:XF.j.' ' a b 5.O * J . 9 0 y p p R.g.d UXUXUXUXUXUXUXUXUX",
"UXUXUXUXUXUX1.W.R.:.0X8XT b 7.E.:.E E.VXLXMXkXxXBXxXeXZXKXLXLXLXLXJXzX>X7.,.:.P k 0X;.O T J 6   + l K 3 I N.b.q UXUXUXUXUXUXUXUX",
"UXUXUXUXUX_ M.R.E.W.5.1 g rX/.I.x >.W.JXLXJXHXLXKXKXHXLXLXLXLXLXLXLXJX>X,.T h j eXuX0.: j + v 6 * y ; 0 n c.N.E : UXUXUXUXUXUXUX",
"UXUXUXUX[ u M.(.C.b 1 . ,X0XW.7.8 C.cXLXKXSXJXLXLXPXIX2X=X%X%X-X=X=XbX@Xf g 7 8XyXyXb @ - , 6 U ~ j $   : U 2.R # f UXUXUXUXUXUX",
"UXUXUXUX# f xX_ o 8 k ) lXzXW.c 8 9XKXKXSXSXxXVXCX=X-X.X X%X$X$X|.$X=X-Xq.Z 5XzXyXyXc @ . : < :.W.>.7 $ O O 8 k $ O UXUXUXUXUXUX",
"UXUXUXV % 3Xi.+ = & f :XxXeXF.~ h lXBXVXNXkXuXfX#X].]. X-X%X%X$X|.q.[.].{.oXm.n.G.(.j # 9 n p.iXgXs.f 7 , & : < i o , UXUXUXUXUX",
"UXUXUXo x S.# 7 ) ; 5 >XzXeXd.0.5.gXDXkX4XkXkXOXXX.X XXXsXFXFXIX2X[.z [ $XOXC.F.iXdX,Xi.C.W.VXGXdXfX3X>Xb g j . ; h X N UXUXUXUX",
"UXUXV % -.d > & z i.~ fXBXzX,X0.wXjXGXdXeX4Xf.e.%X_.].#XGXLXLXLXPXvX) M oX}.iXLXLXLXLXLXAXqX>X:XdXzXzXdX+XU 7.= . 5 @ + UXUXUXUX",
"UXUX  ; h u * > # _ zXVXNXhXzXdXdX4X8X4XT.Z.;.[ |.]..X&XFXLXLXLXLXLX;XN [..X,XMXLXLXHXqXF.i.N 1XSXAXAXnX:Xu.wX: & O * o M UXUXUX",
"UXm 3 h 5 4 3 & : 7 d.,Xr.pXNXNXqXdX6XG.G.9.^ Z ].q.]..X$XFXLXLXLXLXiX#X-X2XCXwXfXhXA.2.n.z C DXJXnX@XdX4XF.rXd O + O # & UXUXUX",
"UXm 0 i n 4 & * - 0.) B 2XLXLXPXnXHXdXG.m.7.^ B q.q._.|. X-XbXPXLXLXPXIXvXmXLXSXrXA.M.2.n._ sXHXKXGXt.w.i.u.W.q @ O @ . o UXUXUX",
"UXUX9 4 a 2 2 6 : f f *XLXHXKXLXKXKX>Xm.m.>X4.) S ].].].].|.|.%XIXLXLXSXGXJXHXAXVXVXF.2.1.9XHXLXLXLX*XV f z / 8 0 5 & o B UXUXUX",
"UXUXUX6 2 2 ( ~ 5 r 0.dX6X6XhXhXiXNXG.Z.MXLXpX}.Z _._._._._.|..X X%XvXHXHXHXVXlXlXAXJXeX9XMXhXMXNXZXiX_ ` K K } } ! K ! UXUXUXUX",
"UXUXUXUXq # 9 y b ) 0.y.a.y.i.p.i.BXeXnXLXPXFX2X'.F D _.D D ].]. X|.|.*XCXGXjXtXrXgXBXSXBXy./ C.K.K.P.J.B.x.l.l.| | | | | | | UX",
"UXUXUXUXUXj @ 0 h $ $ , w f f f V t.) Z.n.G.3X8.N f m D D D D _._.'.|.$XoXF.3X3XT l x c F.E.W.~.!.L.L.P.J.x.z.l.| | | | | | | | ",
"UXUXUXUXUXUXc = 1 3 1 : - - - - $ < $ r n ( / t r O X   w B D _.q.S _.'.|.OXW.6.v U <.L.Q.(.(.(.~.Q.L.P.J.B.z.l.l.l.| | | | z.UX",
"UXUXUXUXUXUXUXN # 1 i 6 8 - . O O , < . + . @ q x r ; > 8 6 g B '.`.A D '.'.0.} k.B.J.L.Q.!.~.~.~.!.Q.L.J.B.x.z.l.| | | | H.UXUX",
"UXUXUXUXUXUXUXUXy.1 d u u j q : X : y.0.5.c q ; -.4.k s L c k : w q.A A { [ { z.x.B.H.P.L.!.~.~.~.~.Q.L.P.J.B.x.l.l.| | <XUXUXUX",
"UXUXUXUXUXUXUXUXUX6X>.z ~ ~ T 7.4.z Y yXxXF.T.:X7XLXNX>.t t t z , M A { { { '.l.z.x.B.P.L.^.0XrXgXgXgXzXjXfXtXU.z.l.z.UXUXUXUXUX",
"UXUXUXUXUXUXUXUXo.a ' 1.,._ 5 ; b s.9XyXxXd.R 0.+XNXKXHXF.j.Y.k.K e V { Z { [.| v.H.3XqXiXaXaXaXcXaXaXaXaXaXcXaXqX<XUXUXUXUXUXUX",
"UXUXUXUXUXUXUXo.y y y U ,.A.( = . @ z ^ D.;.Y [ w.n.8XtXQ.P.B.x.} K M { Z { }.:X7X5X5X7Xf.t.;.^ 7.D.6XUX5X5X5X5X6XUXUXUXUXUXUXUX",
"UXUXUXUXUXUX*.G y y y y z 4.eX8.# 1 t l / x ~ t.A S./.~.^.U.H.Y.k.] M '.A q.|.S.s.-.s 0 4 s G 2.3XUXUXUXUXUXUXUXUXUXUXUXUXUXUXUX",
"UXUXUXUXUXUX*.H y y y y y j ^ :.n + 1 O.v.c. .N S }.E./.^.I.W.4X:Xr.B ].F { { J g.G s n 9.N.b.4.UXUXUXUXUXUXUXUXUXUXUXUXUXUXUXUX",
"UXUXUXUXUXUXV.=.a y y y y y y c G O.+.*.).V.2.N q.}.w.7XkXcXnX5X0.M { Z A |.y.,.K.T.F.:XeXm.-.UXUXUXUXUXUXUXUXUXUXUXUXUXUXUXUXUX",
"UXUXUXUXUXUXzX@.=.H p y y v H +.#.#.&.*.*.*.%.N q.q.Z -X=XOX,Xy.) _.A A { f.7.,.g.,.l I R ^ UXUXUXUXUXUXUXUXUXUXUXUXUXUXUXUXUXUX",
"UXUXUXUXUXUXUXgX@.#.#.#.#.#.#.#.#.#.&.&.).9X1Xq.D F w.e.}.`.'.{.S `._.{ a.6.Z.<.<.1.I s ;.UXUXUXUXUXUXUXUXUXUXUXUXUXUXUXUXUXUXUX",
"UXUXUXUXUXUXUXUXjX).&.@.@.@.@.@.@.V.(.kXCXMXOXm : ^ y.i.p.r.^ t.t.0.+X,X3XY t a I Q L UXUXUXUXUXUXUXUXUXUXUXUXUXUXUXUXUXUXUXUXUX",
"UXUXUXUXUXUXUXUXUXpXpXpXpXpXpXpXpXpXpXhXwXZ. .u 3 I 1.9.S.6.6.>XF.s.Q 4.F. .2.b.M.Z.UXUXUXUXUXUXUXUXUXUXUXUXUXUXUXUXUXUXUXUXUXUX",
"UXUXUXUXUXUXUXUXUXUXUXiX5XiXiXiXiXUXUXUXUXA.>... .W ..g.N.T.E.:.a 4 t E b.E.A.W.rXUXUXUXUXUXUXUXUXUXUXUXUXUXUXUXUXUXUXUXUXUXUXUX",
"UXUXUXUXUXUXUXUXUXUXUXUXUXUXUXUXUXUXUXUXUXUX3X:.G P s L v L E * 3 i J 1.R.A.F.zXUXUXUXUXUXUXUXUXUXUXUXUXUXUXUXUXUXUXUXUXUXUXUXUX",
"UXUXUXUXUXUXUXUXUXUXUXUXUXUXUXUXUXUXUXUXUXUXUXkXT 4 n u 0 i P 1.h.b.M.c.c.8XBXUXUXUXUXUXUXUXUXUXUXUXUXUXUXUXUXUXUXUXUXUXUXUXUXUX",
"UXUXUXUXUXUXUXUXUXUXUXUXUXUXUXUXUXUXUXUXUXUXUXUXgXv 4 T X.h.b.h.g.c.P <.rXSXUXUXUXUXUXUXUXUXUXUXUXUXUXUXUXUXUXUXUXUXUXUXUXUXUXUX",
"UXUXUXUXUXUXUXUXUXUXUXUXUXUXUXUXUXUXUXUXUXUXUXUXUX4Xa T ( E 1.Q g.m.,.3XNXUXUXUXUXUXUXUXUXUXUXUXUXUXUXUXUXUXUXUXUXUXUXUXUXUXUXUX",
"UXUXUXUXUXUXUXUXUXUXUXUXUXUXUXUXUXUXUXUXUXUXUXUXUXUXeX..6.;X:XC.g.u.6XUXUXUXUXUXUXUXUXUXUXUXUXUXUXUXUXUXUXUXUXUXUXUXUXUXUXUXUXUX",
"UXUXUXUXUXUXUXUXUXUXUXUXUXUXUXUXUXUXUXUXUXUXUXUXUXUXUX:XU U L 3.L u.UXUXUXUXUXUXUXUXUXUXUXUXUXUXUXUXUXUXUXUXUXUXUXUXUXUXUXUXUXUX",
"UXUXUXUXUXUXUXUXUXUXUXUXUXUXUXUXUXUXUXUXUXUXUXUXUXUXUXUXUX;XS.S.u.UXUXUXUXUXUXUXUXUXUXUXUXUXUXUXUXUXUXUXUXUXUXUXUXUXUXUXUXUXUXUX",
"UXUXUXUXUXUXUXUXUXUXUXUXUXUXUXUXUXUXUXUXUXUXUXUXUXUXUXUXUXUXUXUXUXUXUXUXUXUXUXUXUXUXUXUXUXUXUXUXUXUXUXUXUXUXUXUXUXUXUXUXUXUXUXUX",
"UXUXUXUXUXUXUXUXUXUXUXUXUXUXUXUXUXUXUXUXUXUXUXUXUXUXUXUXUXUXUXUXUXUXUXUXUXUXUXUXUXUXUXUXUXUXUXUXUXUXUXUXUXUXUXUXUXUXUXUXUXUXUXUX",
"UXUXUXUXUXUXUXUXUXUXUXUXUXUXUXUXUXUXUXUXUXUXUXUXUXUXUXUXUXUXUXUXUXUXUXUXUXUXUXUXUXUXUXUXUXUXUXUXUXUXUXUXUXUXUXUXUXUXUXUXUXUXUXUX",
"UXUXUXUXUXUXUXUXUXUXUXUXUXUXUXUXUXUXUXUXUXUXUXUXUXUXUXUXUXUXUXUXUXUXUXUXUXUXUXUXUXUXUXUXUXUXUXUXUXUXUXUXUXUXUXUXUXUXUXUXUXUXUXUX",
"UXUXUXUXUXUXUXUXUXUXUXUXUXUXUXUXUXUXUXUXUXUXUXUXUXUXUXUXUXUXUXUXUXUXUXUXUXUXUXUXUXUXUXUXUXUXUXUXUXUXUXUXUXUXUXUXUXUXUXUXUXUXUXUX",
"UXUXUXUXUXUXUXUXUXUXUXUXUXUXUXUXUXUXUXUXUXUXUXUXUXUXUXUXUXUXUXUXUXUXUXUXUXUXUXUXUXUXUXUXUXUXUXUXUXUXUXUXUXUXUXUXUXUXUXUXUXUXUXUX",
"UXUXUXUXUXUXUXUXUXUXUXUXUXUXUXUXUXUXUXUXUXUXUXUXUXUXUXUXUXUXUXUXUXUXUXUXUXUXUXUXUXUXUXUXUXUXUXUXUXUXUXUXUXUXUXUXUXUXUXUXUXUXUXUX",
"UXUXUXUXUXUXUXUXUXUXUXUXUXUXUXUXUXUXUXUXUXUXUXUXUXUXUXUXUXUXUXUXUXUXUXUXUXUXUXUXUXUXUXUXUXUXUXUXUXUXUXUXUXUXUXUXUXUXUXUXUXUXUXUX",
"UXUXUXUXUXUXUXUXUXUXUXUXUXUXUXUXUXUXUXUXUXUXUXUXUXUXUXUXUXUXUXUXUXUXUXUXUXUXUXUXUXUXUXUXUXUXUXUXUXUXUXUXUXUXUXUXUXUXUXUXUXUXUXUX",
"UXUXUXUXUXUXUXUXUXUXUXUXUXUXUXUXUXUXUXUXUXUXUXUXUXUXUXUXUXUXUXUXUXUXUXUXUXUXUXUXUXUXUXUXUXUXUXUXUXUXUXUXUXUXUXUXUXUXUXUXUXUXUXUX",
"UXUXUXUXUXUXUXUXUXUXUXUXUXUXUXUXUXUXUXUXUXUXUXUXUXUXUXUXUXUXUXUXUXUXUXUXUXUXUXUXUXUXUXUXUXUXUXUXUXUXUXUXUXUXUXUXUXUXUXUXUXUXUXUX"
};
