/* XPM */
static char *Free_Converter_com_bitcoin32_18301556[] = {
/* columns rows colors chars-per-pixel */
"32 32 256 2 ",
"   c #2B1C0A",
".  c #261908",
"X  c #34230C",
"o  c #3D290E",
"O  c #2B2216",
"+  c #3B2A12",
"@  c #362A1A",
"#  c #3E2E19",
"$  c #33271B",
"%  c #3A3224",
"&  c #412B0F",
"*  c #442C07",
"=  c #4E330D",
"-  c #5E3D09",
";  c #422E12",
":  c #4B3414",
">  c #42331A",
",  c #503714",
"<  c #543A13",
"1  c #443A28",
"2  c #503F20",
"3  c #5A3D2D",
"4  c #403E3B",
"5  c #59411D",
"6  c #674514",
"7  c #63411D",
"8  c #6E4A1B",
"9  c #66481A",
"0  c #745112",
"q  c #594524",
"w  c #5A4728",
"e  c #5F4D30",
"r  c #694D26",
"t  c #684128",
"y  c #674F28",
"u  c #60442B",
"i  c #695127",
"p  c #65502B",
"a  c #655334",
"s  c #6D5934",
"d  c #6C5C3C",
"f  c #665434",
"g  c #7A633A",
"h  c #5E5342",
"j  c #6C5D44",
"k  c #655B4D",
"l  c #725F45",
"z  c #7E6C44",
"x  c #72644B",
"c  c #7E6B47",
"v  c #6B625A",
"b  c #796A57",
"n  c #7D7257",
"m  c #6F6A66",
"M  c #686562",
"N  c #716D65",
"B  c #757370",
"V  c #7F7C78",
"C  c #7E7570",
"Z  c #8B5D1C",
"A  c #87611F",
"S  c #99671C",
"D  c #A36E1A",
"F  c #825C27",
"G  c #896527",
"H  c #83622B",
"J  c #916C27",
"K  c #98742E",
"L  c #876935",
"P  c #836D3D",
"I  c #886A35",
"U  c #906E31",
"Y  c #917135",
"T  c #9C7A3D",
"R  c #97753A",
"E  c #A3792E",
"W  c #A47F3A",
"Q  c #CB6E3D",
"!  c #88764A",
"~  c #9D7E45",
"^  c #967E4C",
"/  c #937A45",
"(  c #847259",
")  c #A17D4C",
"_  c #837E78",
"`  c #CE7540",
"'  c #C97E47",
"]  c #E97D45",
"[  c #E37B44",
"{  c #B3852D",
"}  c #AA833A",
"|  c #B38A3D",
" . c #B98A37",
".. c #C68619",
"X. c #F2AA21",
"o. c #F4B539",
"O. c #9D854D",
"+. c #93815A",
"@. c #9C8757",
"#. c #A48345",
"$. c #A3854B",
"%. c #AA894A",
"&. c #B38D43",
"*. c #BA834E",
"=. c #B59047",
"-. c #BB9443",
";. c #B6934B",
":. c #BE964A",
">. c #A18750",
",. c #AA8F57",
"<. c #A58C5A",
"1. c #B08D51",
"2. c #AA915E",
"3. c #B29252",
"4. c #B99752",
"5. c #BA9954",
"6. c #BEA05F",
"7. c #9B8A66",
"8. c #83817F",
"9. c #8C887F",
"0. c #9A8D71",
"q. c #9A957E",
"w. c #A38A68",
"e. c #A99969",
"r. c #B79F6F",
"t. c #B99D68",
"y. c #A88673",
"u. c #A09477",
"i. c #AC9A71",
"p. c #BFA46D",
"a. c #BDA162",
"s. c #BBA271",
"d. c #B7A775",
"f. c #D49057",
"g. c #EA834B",
"h. c #EC8E4F",
"j. c #EE9856",
"k. c #E8995F",
"l. c #E39454",
"z. c #C9A14D",
"x. c #DFAE4E",
"c. c #C4A15D",
"v. c #D6B05D",
"b. c #EEB445",
"n. c #E5B04F",
"m. c #F0A15C",
"M. c #EEBC5D",
"N. c #ED9669",
"B. c #C3A562",
"V. c #C8AB67",
"C. c #D1AD60",
"Z. c #CDB06A",
"A. c #D8B86A",
"S. c #C3AC72",
"D. c #CBAC73",
"F. c #CBB17B",
"G. c #D2B776",
"H. c #EFAE64",
"J. c #F1AD63",
"K. c #E0B86E",
"L. c #E2BF66",
"P. c #F3B76B",
"I. c #EBB67C",
"U. c #F1B770",
"Y. c #E6C46F",
"T. c #F5C06F",
"R. c #EFC67A",
"E. c #EBC673",
"W. c #F4C372",
"Q. c #F7CD77",
"!. c #F7CE79",
"~. c #848382",
"^. c #8A8682",
"/. c #898889",
"(. c #8F8B82",
"). c #938D81",
"_. c #90908D",
"`. c #9E9C8D",
"'. c #9B9994",
"]. c #9B9B9A",
"[. c #A89D84",
"{. c #B9A883",
"}. c #AAA599",
"|. c #B2A995",
" X c #BCB39B",
".X c #A8A7A3",
"XX c #A9A8A6",
"oX c #ADACAA",
"OX c #A4A4A4",
"+X c #B3AFA1",
"@X c #B5B1A9",
"#X c #C3B38C",
"$X c #C8B68A",
"%X c #CEB98A",
"&X c #D3BB82",
"*X c #D9BE87",
"=X c #D0B98A",
"-X c #C7B691",
";X c #C8B997",
":X c #CEBD99",
">X c #EBB385",
",X c #C0BDB9",
"<X c #C8C78E",
"1X c #D9C283",
"2X c #DECF8D",
"3X c #DAC48F",
"4X c #DAC492",
"5X c #D6C494",
"6X c #E4C989",
"7X c #E6C986",
"8X c #F2DA8A",
"9X c #E4CB92",
"0X c #E3CD9C",
"qX c #EDCD96",
"wX c #E3D09F",
"eX c #EFDE9A",
"rX c #F3E599",
"tX c #D6CBA5",
"yX c #D8CCAA",
"uX c #DDD0AE",
"iX c #CAC5BC",
"pX c #DDD4BE",
"aX c #E2CFA1",
"sX c #ECDAA5",
"dX c #EAD5AA",
"fX c #EDDAA8",
"gX c #E8D4A5",
"hX c #F2DCA9",
"jX c #E1D7B7",
"kX c #EADDB4",
"lX c #E3D8BD",
"zX c #EBDDBB",
"xX c #F7E1A7",
"cX c #F7E5A9",
"vX c #EEE2BC",
"bX c #F6E3B1",
"nX c #CCCCC6",
"mX c #D4D1C9",
"MX c #D8D8D7",
"NX c #D8D7D4",
"BX c #E5DBC3",
"VX c #EAE3CF",
"CX c #F7EEC3",
"ZX c #F8F5C3",
"AX c #F3EBD3",
"SX c #F6EEDA",
"DX c #F1E6D1",
"FX c #F8F1D8",
"GX c #FAF0D1",
"HX c #E5E5E3",
"JX c #FAF5EC",
"KX c #FEFBEB",
"LX c #FEFDF4",
"PX c #FFFFFE",
"IX c #F2F2F1",
"UX c None",
/* pixels */
"UXUXUXUXUXUXUXUXUXUXUXUXUXUXUXUXUXUXUXUXUXUXUXUXUXUXUXUXUXUXUXUX",
"UXUXUXUXUXUXUXUXUXUXUXUXUXUXUXUXUXUXUXUXUXUXUXUXUXUXUXUXUXUXUXUX",
"UXUXUXUXUXUXUXUXUXUXUXUXUXUXUXUXUXUXUXUXUXUXUXUXUXUXUXUXUXUXUXUX",
"UXUXUXUXUXUXUXUXUXUXUXUXUXUXUXUXUXUXUXUXUXUXUXUXUXUXUXUXUXUXUXUX",
"UXUXUXUXUXUXUXUXUXUXUXUXUXUXUXUXUXUXUXUXUXUXUXUXUXUXUXUXUXUXUXUX",
"UXUXUXUXUXUXUXUXUXUXUXUXUXUXUXUXUXUXUXUXUXUXUXUXUXUXUXUXUXUXUXUX",
"UXUXUXUXUXUXUXUXUXUXUXUXUXUXUXUXUXUXUXUXUXUXUXUXUXUXUXUXUXUXUXUX",
"UXUXUXUXUXUXUXt.V.Y.4.L R s.#X:X=Xp.F.&X&X7Xs.UXUXUXUXUXUXUXUXUX",
"UXUXUXUXUXF | E | B.F.#.,.%XLXGXhX*Xc.&.T U |  .Y %.UXUXUXUXUXUX",
"UXUXUXUXG T K.} z.g V.A.a.5XJXJXSXaXc.:.6 o H E r 1.3.UXUXUXUXUX",
"UXUXUXv.;.G.$.%.&.bXjXhXsXzXPXPXJX0Xc.R ~ z 5 ; & 8 | #.UXUXUXUX",
"UXUX$.E.O.e 6X;.O.KXLXLXPXLXPXPXPXBXp g rXz X , r + 5 -.q UXUXUX",
"UXb @.a X r.xXg $XKXvXZXmXXXMXHXmXoX(.S.8Xi X +.1Xp . # o j UXUX",
"UXq s > j aXfXe.sXkX2Xq.].`.iXoXm x }.-XDXmX3XwXkXsXw.f X . UXUX",
"h , :   ^ yXBXzXwX1XO.N _..XHXPXMXk @XpXAXdXt.0.FXlX4XD.  . # UX",
"l - < + h |.LXPXAXV.! k 9.'.OXnXIX,XmXJXxXC.4.VXPX+X( ^ >   $ UX",
"UXa = p l {.$X;XaX0XiXM B ~./.].oXiXSXbXcXvXwX%X4XD.*.' ` Q ] UX",
"UXUX( * ; @ % 1 h z ,.s O 4 M ^._.'.;XF.g ) K.E.Q.U.J.j.g.] ] g.",
"UXUXUXUX< < > O @ d q 2 e   X 1 m V ^.y.l.H.W.!.!.W.P.m.h.] N.UX",
"UXUXUXUXn.$.I f ! eX1X2.lXuXP u 3 C _ y.k.I.qXsXkXvXkXdX>X>XUXUX",
"UXUXUXS 7 F a.i & / ^ u.d.R.U.f.t v ~.[.d.e.! P S.UXUX<XUXUXUXUX",
"UXUXUXD 7 7 r ) 0 { I ^ (.%X9X5Xn m ~.7.-.~ c.3.UXUXUXUXUXUXUXUX",
"UXUXUXn.D Z Z ..X.o.3.k 9.}. X[._ B 0.5.=.Y <.UXUXUXUXUXUXUXUXUX",
"UXUXUXUXM.b.b.b.M.9Xi.1 q +.7.! x w.6.K ;.,.UXUXUXUXUXUXUXUXUXUX",
"UXUXUXUXUXtXtXtXUXUXsX&.A K %.R 6 J v.7XUXUXUXUXUXUXUXUXUXUXUXUX",
"UXUXUXUXUXUXUXUXUXUXUXUXL 9 G } -.-.9XUXUXUXUXUXUXUXUXUXUXUXUXUX",
"UXUXUXUXUXUXUXUXUXUXUXUXUX#.1.5.:.1XUXUXUXUXUXUXUXUXUXUXUXUXUXUX",
"UXUXUXUXUXUXUXUXUXUXUXUXUXUX<.2.r.UXUXUXUXUXUXUXUXUXUXUXUXUXUXUX",
"UXUXUXUXUXUXUXUXUXUXUXUXUXUXUXUXUXUXUXUXUXUXUXUXUXUXUXUXUXUXUXUX",
"UXUXUXUXUXUXUXUXUXUXUXUXUXUXUXUXUXUXUXUXUXUXUXUXUXUXUXUXUXUXUXUX",
"UXUXUXUXUXUXUXUXUXUXUXUXUXUXUXUXUXUXUXUXUXUXUXUXUXUXUXUXUXUXUXUX",
"UXUXUXUXUXUXUXUXUXUXUXUXUXUXUXUXUXUXUXUXUXUXUXUXUXUXUXUXUXUXUXUX"
};
