/* XPM */
static char *Free_Converter_com_bitcoin16_88091556[] = {
/* columns rows colors chars-per-pixel */
"16 16 136 2 ",
"   c #2C1D09",
".  c #3D2604",
"X  c #38290F",
"o  c #473316",
"O  c #493719",
"+  c #553C15",
"@  c #563F1B",
"#  c #57401B",
"$  c #6F4E1A",
"%  c #6E491C",
"&  c #6D4E1D",
"*  c #7F5A1C",
"=  c #4F4027",
"-  c #534125",
";  c #5D4927",
":  c #50432C",
">  c #7C5625",
",  c #765926",
"<  c #705A2E",
"1  c #675332",
"2  c #6B5831",
"3  c #68573A",
"4  c #68583C",
"5  c #7D6B4B",
"6  c #835C26",
"7  c #8F692D",
"8  c #9C7429",
"9  c #987337",
"0  c #9D7C39",
"q  c #CE723F",
"w  c #925E41",
"e  c #806A41",
"r  c #877248",
"t  c #9B7C45",
"y  c #AD6C40",
"u  c #E97C44",
"i  c #BB8A2E",
"p  c #9E8247",
"a  c #9C804A",
"s  c #978050",
"d  c #988257",
"f  c #A78348",
"g  c #AD8A49",
"h  c #A98E4E",
"j  c #B28D44",
"k  c #B28E47",
"l  c #AB905C",
"z  c #AF965D",
"x  c #B89751",
"c  c #B7985D",
"v  c #8F846A",
"b  c #908268",
"n  c #8F8172",
"m  c #978C74",
"M  c #A99A6E",
"N  c #B59B69",
"B  c #AD9E7D",
"V  c #BC9D72",
"C  c #BFA164",
"Z  c #BCA26B",
"A  c #BEA66D",
"S  c #B9A371",
"D  c #BDA677",
"F  c #B5A37A",
"G  c #C9854C",
"H  c #C19E57",
"J  c #EB874D",
"K  c #C6A35B",
"L  c #C7A25C",
"P  c #EDB74F",
"I  c #E5B954",
"U  c #C1A161",
"Y  c #C7A26C",
"T  c #C1AA6F",
"R  c #CBAC6A",
"E  c #D5B96E",
"W  c #C3AC70",
"Q  c #C1A974",
"!  c #CCAF76",
"~  c #D4BD7B",
"^  c #D6BD7A",
"/  c #E8AD64",
"(  c #F2AC69",
")  c #EEC067",
"_  c #ECC168",
"`  c #F6CF7B",
"'  c #F6CC7F",
"]  c #918B86",
"[  c #9A8F83",
"{  c #9A9283",
"}  c #91918F",
"|  c #94908D",
" . c #9C9C98",
".. c #A79E87",
"X. c #ABA28A",
"o. c #B6A482",
"O. c #BBAE85",
"+. c #B2A788",
"@. c #BEAF8F",
"#. c #B6AD96",
"$. c #A4A4A2",
"%. c #B4B4B3",
"&. c #C6B285",
"*. c #CDB783",
"=. c #CCB689",
"-. c #C9B78C",
";. c #C9B78D",
":. c #D0BA87",
">. c #DEBF83",
",. c #F1B798",
"<. c #C2BCB2",
"1. c #DAC083",
"2. c #DBC188",
"3. c #CEC19F",
"4. c #D2C696",
"5. c #DDC894",
"6. c #D0C09B",
"7. c #D8C499",
"8. c #D8CE9B",
"9. c #E1D0A9",
"0. c #E1D6B8",
"q. c #F0DEB5",
"w. c #F7EEBE",
"e. c #C5C5C0",
"r. c #D2CFCD",
"t. c #E4DBC2",
"y. c #F7F2C3",
"u. c #EEE7D0",
"i. c #F6ECD0",
"p. c #FEF6E0",
"a. c #FDFCE8",
"s. c #FFFEE8",
"d. c #FFFBEF",
"f. c #FFFFFB",
"g. c #FFFFFD",
"h. c None",
/* pixels */
"h.h.h.h.h.h.h.h.h.h.h.h.h.h.h.h.",
"h.h.h.h.h.h.h.h.h.h.h.h.h.h.h.h.",
"h.h.f K x t 6.9.! C U L h.h.h.h.",
"h.g k k T ~ u.d.>.7 & $ 9 h.h.h.",
"Z p z Q s.s.f.g.o.h 2 o + , h.h.",
"; 5 5.;.w.y.e.r.;.#.B &.F - = h.",
". b p.q.E O.$.%.<.i.2.0.t.d   h.",
"@ 4 ..@.7.{ | }  .3.*.=.Y G q u ",
"h.# X : r 1 O 3 n ] / ` ' ( J ,.",
"h.6 a < W 1.V y w [ D M 4.8.h.h.",
"h.% > i I ^ X.+.v m 0 h.h.h.h.h.",
"h.) P _ :.e A S s H h.h.h.h.h.h.",
"h.h.h.h.h.l * 8 R h.h.h.h.h.h.h.",
"h.h.h.h.h.h.N c h.h.h.h.h.h.h.h.",
"h.h.h.h.h.h.h.h.h.h.h.h.h.h.h.h.",
"h.h.h.h.h.h.h.h.h.h.h.h.h.h.h.h."
};
